PathFileType	4	(X/Y/Z)	c:\Git\powerlifing_model_clean\simulations\HC835B\Session1\HC835B_CUT_0002\marker_experimental.trc
DataRate	CameraRate	NumFrames	NumMarkers	Units	OrigDataRate	OrigDataStartFrame	OrigNumFrames
240.000000	240.000000	4	38	mm	240.000000	20	82
Frame#	Time	RPSI			LPSI			RASI			LASI			RTH1			RTH2			RTH3			RTH4			RSK1			RSK2			RSK3			RSK4			RCAL1			RCAL2			RCAL3			RST			RPT			RTN			RFMB			RSMB			RVMB			RFMH			RSMH			RVMH			RPM			LTH1			LTH2			LTH3			LTH4			LSK1			LSK2			LSK3			LSK4			LCAL1			LCAL2			LCAL3			LFMH			LVMH			
		X1	Y1	Z1	X2	Y2	Z2	X3	Y3	Z3	X4	Y4	Z4	X5	Y5	Z5	X6	Y6	Z6	X7	Y7	Z7	X8	Y8	Z8	X9	Y9	Z9	X10	Y10	Z10	X11	Y11	Z11	X12	Y12	Z12	X13	Y13	Z13	X14	Y14	Z14	X15	Y15	Z15	X16	Y16	Z16	X17	Y17	Z17	X18	Y18	Z18	X19	Y19	Z19	X20	Y20	Z20	X21	Y21	Z21	X22	Y22	Z22	X23	Y23	Z23	X24	Y24	Z24	X25	Y25	Z25	X26	Y26	Z26	X27	Y27	Z27	X28	Y28	Z28	X29	Y29	Z29	X30	Y30	Z30	X31	Y31	Z31	X32	Y32	Z32	X33	Y33	Z33	X34	Y34	Z34	X35	Y35	Z35	X36	Y36	Z36	X37	Y37	Z37	X38	Y38	Z38	

21	0.08333333333333333	80.08862304687501	1061.7060546875	-147.7820434570313	-19.85078620910645	1037.697143554688	-105.353500366211	52.44832229614259	1038.040893554688	-360.0929870605469	-153.3250274658203	964.0373535156252	-258.2257995605469	194.4223937988282	794.886413574219	-424.889617919922	157.7896423339844	799.8206176757815	-472.9593200683595	181.0022888183594	725.0159301757814	-470.462127685547	136.7648468017578	725.3418579101564	-509.295379638672	277.5453796386719	295.7715759277344	-495.9450073242189	253.5403747558594	281.1661987304688	-550.8593750000001	281.0329895019532	240.2333374023438	-514.7584838867189	248.1897888183594	223.6663360595704	-562.2585449218751	304.1303100585938	89.63011932373048	-457.9408569335939	270.6222534179688	53.72821426391603	-449.5882263183595	329.7319030761719	51.39952468872072	-474.2276611328126	226.4905853271485	66.97975158691408	-505.2089843750001	327.3388671875001	61.92110824584962	-538.3912963867189	215.8498229980469	83.15394592285158	-562.4780273437501	208.6463317871094	70.74285125732423	-595.3433837890626	248.0142517089844	94.13288879394533	-622.0836791992189	320.5671081542969	36.90372848510743	-583.1117553710939	188.4916381835938	51.44508361816408	-645.5111083984376	231.0650939941407	60.80960083007814	-680.4447631835939	303.0744934082032	29.89237594604493	-661.4345703125001	194.4146270751954	48.28969192504884	-728.5472412109376	-66.04015350341798	656.1510009765626	-152.5613250732422	-89.37574768066408	638.8198852539064	-205.7682342529297	-47.63871383666993	576.4184570312501	-175.2633361816407	-58.49150848388673	563.7590332031251	-234.3233489990235	178.7054748535157	500.2792053222657	61.91001892089845	190.2904205322266	450.0940551757814	75.62069702148439	210.948226928711	484.1039123535157	105.4401931762696	235.1403503417969	433.694549560547	108.5507431030274	319.9054260253907	556.0102539062501	185.8550109863282	314.1029968261719	558.8732910156251	233.196029663086	364.0459289550782	564.4361572265626	202.2516174316407	420.1956176757814	351.3543090820313	217.6022033691407	340.4351806640626	375.4401550292969	291.5791015625001	
22	0.08749999999999999	76.14733123779298	1058.078369140625	-164.0900268554688	-23.66866874694825	1033.807495117188	-121.2135620117188	48.76856994628908	1036.282470703125	-376.9605407714844	-157.0313262939453	961.590270996094	-275.6314392089844	190.0273590087891	792.878601074219	-439.9701232910157	153.2452697753907	796.8215942382815	-488.6224365234376	177.3582458496094	722.1384887695314	-484.297576904297	133.6855621337891	721.3344726562501	-523.4672851562501	274.1825256347657	296.5744323730469	-503.3602294921876	249.8263397216797	279.6636047363282	-557.5186767578126	278.4553833007813	240.5164642333985	-520.3182983398439	244.7099304199219	221.554916381836	-566.4998779296876	304.0424499511719	89.83340454101564	-457.9741516113282	270.3780212402344	53.6211395263672	-449.5497131347657	329.6835327148438	51.58923721313478	-474.2817382812501	226.3821563720704	66.00681304931642	-503.8421020507814	327.1351623535157	62.05261230468751	-538.4621582031251	214.6627044677735	82.25762939453126	-561.9426269531251	207.574203491211	69.67224121093751	-594.5637817382814	246.6932678222657	93.10314941406251	-621.0479736328126	320.3150329589844	37.15331649780274	-583.1058349609376	185.7841033935547	50.26090240478517	-644.6326293945314	229.8063507080079	59.56447982788087	-679.2941894531251	302.3693542480469	30.6221046447754	-661.1665039062501	192.6133117675782	48.08829498291017	-727.4790039062501	-73.25337982177736	651.1541748046876	-174.87255859375	-97.08235931396487	634.9655761718751	-228.2886352539063	-55.9438819885254	571.8162841796876	-199.1081695556641	-67.18457031250001	560.4348144531251	-258.4920959472657	166.7741394042969	499.5015563964845	33.11340332031251	179.228271484375	449.7271423339845	47.35345077514649	199.3351745605469	484.2329101562501	76.8104934692383	224.3203887939454	434.5538330078126	80.52563476562501	307.0455932617188	558.6732177734376	157.45703125	301.0882263183594	561.2013549804689	204.8543090820313	350.9187622070313	567.7379760742189	174.0186767578125	410.5331115722657	355.4828491210938	188.8243408203125	330.2271118164063	378.1285095214844	262.8687744140626	
23	0.09166666666666666	72.53699493408205	1054.557006835938	-179.5603332519532	-27.47414779663087	1029.860595703125	-136.531478881836	45.12812423706055	1034.26806640625	-393.0623474121095	-160.298568725586	958.922546386719	-292.8793640136719	185.2469177246094	791.8931884765627	-454.471649169922	148.9422912597657	794.7161254882815	-503.163299560547	173.3096008300782	720.3160400390626	-497.7852172851564	131.0002746582032	719.0811157226564	-538.3143920898439	270.2432861328126	299.0648193359376	-510.6534729003907	245.7331237792969	279.8972778320313	-564.0193481445314	275.0382995605469	242.4590148925782	-525.6216430664064	241.3503417968751	221.5585632324219	-570.9436645507814	302.4832458496094	90.7089309692383	-458.2085266113282	269.2724914550782	53.83372116088869	-449.6734619140626	328.6647949218751	52.72019195556642	-474.3171691894532	224.9429168701172	65.00197601318361	-503.7471313476564	325.5258178710938	63.14075469970705	-538.4893798828126	212.540023803711	80.83897399902345	-562.1467895507814	205.7650451660157	68.59751892089845	-594.8836059570314	244.5428009033204	93.1178436279297	-622.1612548828126	319.4214782714844	38.2760238647461	-583.0587158203126	183.7119750976563	48.35641098022462	-644.4906005859376	228.3867950439454	59.24940109252931	-679.6211547851564	300.7614135742188	31.89286041259766	-660.6716308593751	191.8403625488282	45.54599380493165	-728.2902221679689	-80.56729125976564	646.2163085937501	-197.1480865478516	-104.9064483642578	631.5374145507814	-250.698226928711	-64.2013397216797	567.0805053710939	-223.3968811035157	-75.96394348144533	557.2647094726564	-282.8199157714844	154.81591796875	498.5079650878907	4.178892135620118	168.0903015136719	449.0002746582032	18.60375213623047	187.5834350585938	484.0228576660157	47.91867828369141	213.4425201416016	434.587860107422	51.80864334106447	294.0696716308594	560.4750366210939	128.9709930419922	287.7785949707032	563.1822509765626	176.085922241211	337.7716979980469	570.1588745117189	145.5597534179688	400.5122375488282	358.8025207519532	159.5443572998047	319.8704223632813	379.9440307617188	233.7442474365235	
24	0.09583333333333333	69.13385009765626	1051.072143554688	-193.7039337158204	-31.29601669311524	1025.75927734375	-151.373519897461	41.52182006835938	1032.124145507813	-408.8943786621095	-163.2183990478516	956.383483886719	-309.6747436523438	180.031478881836	791.3797607421877	-469.3281250000001	144.7348327636719	793.8586425781252	-518.8499755859376	168.4952239990235	719.3506469726564	-511.8848571777345	127.1001434326172	717.9063720703126	-553.4855346679689	265.9144592285157	301.2797851562501	-517.8312988281251	241.5181884765626	280.2850036621094	-570.5328979492189	271.1734313964844	244.2756500244141	-531.0372924804689	237.5780334472657	221.6023712158204	-575.2887573242189	300.0787658691407	91.9232635498047	-458.7691955566407	267.6886291503907	54.35731887817384	-450.0878906250001	327.2008666992188	54.38561630249025	-474.5179443359376	222.5333862304688	64.19397735595705	-504.824676513672	323.7474975585938	64.52670288085939	-538.6395874023439	210.9148101806641	79.75621032714845	-563.2243652343751	204.4253082275391	67.77902221679689	-596.2346801757814	242.8645935058594	92.66055297851564	-623.4673461914064	318.4477539062501	39.31896591186524	-583.0563354492189	184.0954895019532	47.82346725463868	-645.8831787109376	228.1408691406251	58.36083602905275	-680.7540283203126	300.7330017089844	32.03034973144532	-660.8983764648439	192.2525177001954	43.29354858398438	-729.9230957031251	-88.11255645751955	641.8534545898439	-219.3236236572266	-113.0584259033203	628.6000976562501	-273.2033386230469	-72.57402801513673	562.9329833984376	-247.5567626953126	-85.45774078369142	555.0646362304689	-307.0044860839844	142.616943359375	497.1954650878907	-24.96880912780762	156.6673431396485	447.7461853027345	-10.44343280792237	175.6656951904297	483.4566955566407	18.80143737792969	202.3753204345704	434.3643188476564	22.73419380187989	281.2439270019532	561.7410278320314	100.3586196899414	274.9880676269532	563.7079467773439	148.017578125	324.6795654296876	571.7617187500001	117.089714050293	390.2089843750001	361.2126464843751	129.5792388916016	309.3647155761719	380.9649963378907	204.2673950195313	
